# Blender 4.0.1
# www.blender.org
mtllib x_sortable_octagon.mtl
o Cube
v 3.718035 1.311380 -0.844805
v 3.137402 -0.559324 -0.862760
v 2.000000 1.000000 1.000000
v 2.000000 -1.000000 1.000000
v 1.718035 1.311380 -0.844805
v 1.137402 -0.559324 -0.862760
v 0.000000 1.000000 1.000000
v 0.000000 -1.000000 1.000000
vn -0.0000 0.9861 0.1664
vn -0.0000 -0.0000 1.0000
vn -0.8535 -0.0000 -0.5211
vn -0.0000 -0.9731 -0.2302
vn 0.8535 -0.0000 0.5211
vn -0.0000 0.0096 -1.0000
vn -0.7310 0.2330 -0.6414
vn 0.7310 -0.2330 0.6414
vt 0.875000 0.500000
vt 0.625000 0.750000
vt 0.625000 0.500000
vt 0.375000 1.000000
vt 0.375000 0.750000
vt 0.625000 0.000000
vt 0.375000 0.250000
vt 0.375000 0.000000
vt 0.125000 0.500000
vt 0.125000 0.750000
vt 0.375000 0.500000
vt 0.625000 0.250000
vt 0.875000 0.750000
vt 0.625000 1.000000
s 0
usemtl Material
f 5/1/1 3/2/1 1/3/1
f 3/2/2 8/4/2 4/5/2
f 7/6/3 6/7/3 8/8/3
f 6/9/4 4/5/4 8/10/4
f 2/11/5 3/2/5 4/5/5
f 5/12/6 2/11/6 6/7/6
f 5/1/1 7/13/1 3/2/1
f 3/2/2 7/14/2 8/4/2
f 7/6/7 5/12/7 6/7/7
f 6/9/4 2/11/4 4/5/4
f 2/11/8 1/3/8 3/2/8
f 5/12/6 1/3/6 2/11/6
